<svg id="LOGO" xmlns="http://www.w3.org/2000/svg" viewBox="0 0 1383.72 319.5"><defs><style>.cls-1{fill:#1f48d3;}</style></defs><path class="cls-1" d="M140.72,114.28A81.66,81.66,0,0,0,85,136.47V46.58H41.68V290.9h0a43.28,43.28,0,0,0,38.54-23.58c15.39,16.62,36.81,26.94,60.5,26.94,46.82,0,84.78-40.29,84.78-90S187.54,114.28,140.72,114.28Zm-5.41,140.26a50.34,50.34,0,1,1,50.34-50.34A50.33,50.33,0,0,1,135.31,254.54Z"/><path class="cls-1" d="M250,247.6a43.3,43.3,0,0,0,43.3,43.3h0V46.58H250Z"/><path class="cls-1" d="M903.38,117.5h0V290.9h43.3V160.8A43.3,43.3,0,0,0,903.38,117.5Z"/><path class="cls-1" d="M608,254.68a50.41,50.41,0,0,1-49.16-39.28H697.51A90.1,90.1,0,1,0,694.15,231H650.72A50.37,50.37,0,0,1,608,254.68Zm0-100.82a50.41,50.41,0,0,1,45.31,28.31H562.7A50.41,50.41,0,0,1,608,153.86Z"/><path class="cls-1" d="M1261.65,254.68a50.42,50.42,0,0,1-49.16-39.28h138.66A90,90,0,1,0,1347.8,231h-43.44A50.35,50.35,0,0,1,1261.65,254.68Zm0-100.82A50.41,50.41,0,0,1,1307,182.17h-90.61A50.39,50.39,0,0,1,1261.65,153.86Z"/><polygon class="cls-1" points="791.52 233.33 746.43 117.48 701.34 117.48 768.85 290.92 769.1 290.92 813.94 290.92 814.19 290.92 881.7 117.48 836.61 117.48 791.52 233.33"/><path class="cls-1" d="M449.29,216.09a38.59,38.59,0,1,1-77.17,0V117.5H328.81V224.12A70.28,70.28,0,0,0,454.24,267.7a43.29,43.29,0,0,0,38.36,23.2V117.5H449.29Z"/><path class="cls-1" d="M1076,114a70.14,70.14,0,0,0-55.13,26.72,43.31,43.31,0,0,0-38.36-23.2h0V291h43.31V192.36a38.59,38.59,0,1,1,77.17,0V291h43.31V184.33A70.3,70.3,0,0,0,1076,114Z"/><path class="cls-1" d="M903.38,94.7a54.84,54.84,0,0,0,.37,6.18A52.42,52.42,0,0,0,962.1,42.54,52.42,52.42,0,0,0,903.38,94.7Z"/></svg>