<svg width="161" height="35" viewBox="0 0 161 35" fill="none" xmlns="http://www.w3.org/2000/svg">
<g clip-path="url(#clip0)">
<path d="M128.014 33.5415H129.473V4.375H128.014V33.5415ZM125.098 33.5415H126.556V4.375H125.098V33.5415ZM122.181 33.5415H123.639V4.375H122.181V33.5415ZM119.264 33.5415H120.723V4.375H119.264V33.5415Z" fill="#183651"/>
<path d="M49.5457 33.5414H51.0041V19.1606C51.0041 17.0137 50.3322 15.3294 48.9888 14.107C47.6449 12.8853 45.8863 12.2741 43.7124 12.2741C41.7408 12.2741 40.1002 12.9222 38.7906 14.2185C37.4807 15.5149 36.8259 17.0945 36.8259 18.958C36.8259 20.16 37.0316 21.2233 37.4436 22.1479C37.8554 23.0732 38.4123 23.8024 39.1147 24.3356C39.8165 24.869 40.5964 25.2672 41.4541 25.5306C42.3114 25.7938 43.2263 25.9255 44.1985 25.9255C45.7107 25.9255 47.1218 25.5811 48.4318 24.8925V23.4342C47.1625 24.1906 45.7582 24.5684 44.2189 24.5684C43.584 24.5684 42.9865 24.5077 42.4262 24.3861C41.8659 24.2646 41.329 24.0654 40.816 23.7886C40.3027 23.5121 39.8605 23.1609 39.4894 22.7354C39.1179 22.3101 38.8241 21.7768 38.6083 21.1354C38.3922 20.4941 38.2842 19.7681 38.2842 18.9579C38.2842 17.5268 38.8174 16.298 39.8843 15.2716C40.9509 14.2456 42.2268 13.7322 43.7124 13.7322C45.4676 13.7322 46.8788 14.2049 47.9456 15.1499C49.0122 16.0953 49.5457 17.4321 49.5457 19.1604V33.5414ZM52.5838 13.9755C51.6928 12.4767 50.4775 11.3323 48.938 10.5425C47.3988 9.75241 45.6568 9.35737 43.7123 9.35737C40.9442 9.35737 38.6183 10.2927 36.7346 12.1627C34.851 14.0332 33.9091 16.2981 33.9091 18.9582C33.9091 20.5248 34.1858 21.9391 34.7396 23.2015C35.2932 24.4643 36.0425 25.4904 36.9878 26.2802C37.9329 27.0701 39.0063 27.6712 40.2083 28.0828C41.41 28.495 42.6793 28.7007 44.0161 28.7007C45.5014 28.7007 46.9732 28.3968 48.4317 27.7893V26.2498C47.0408 26.9654 45.5757 27.3232 44.0364 27.3232C42.9022 27.3232 41.8252 27.151 40.8058 26.8069C39.7862 26.4624 38.8646 25.9596 38.041 25.2979C37.2174 24.6364 36.5657 23.7585 36.0865 22.6649C35.6071 21.5711 35.3676 20.3356 35.3676 18.9582C35.3676 16.6896 36.164 14.7655 37.7575 13.1856C39.3506 11.6059 41.3356 10.8159 43.7123 10.8159C46.2777 10.8159 48.3775 11.5688 50.0114 13.0743C51.6452 14.5801 52.4623 16.6087 52.4623 19.1607V33.5414H53.9206V19.1606C53.9207 17.203 53.4751 15.4743 52.5838 13.9755ZM55.1157 12.5171C53.9679 10.5727 52.3981 9.07393 50.4066 8.02069C48.4146 6.96744 46.1835 6.44082 43.7124 6.44082C41.9434 6.44082 40.2692 6.77188 38.6893 7.43334C37.1094 8.09509 35.7591 8.98624 34.6384 10.1069C33.5174 11.228 32.6297 12.5578 31.975 14.0972C31.3198 15.6365 30.9927 17.2569 30.9927 18.9582C30.9927 21.3483 31.58 23.5089 32.7548 25.4395C33.9295 27.3708 35.4957 28.8627 37.4538 29.9159C39.4115 30.9691 41.5585 31.4957 43.8947 31.4957C45.38 31.4957 46.8923 31.2057 48.4318 30.6248V29.1463C46.9598 29.7811 45.461 30.0982 43.9352 30.0982C42.4365 30.0982 41.0016 29.8452 39.6312 29.3387C38.2606 28.8324 37.0387 28.1202 35.9651 27.2018C34.8917 26.2837 34.0376 25.1124 33.4031 23.6877C32.7681 22.2632 32.451 20.687 32.451 18.9583C32.451 16.9465 32.9403 15.0967 33.9195 13.4087C34.8984 11.7208 36.2519 10.3805 37.9805 9.38807C39.7089 8.39555 41.6193 7.89943 43.7125 7.89943C45.9133 7.89943 47.8983 8.35864 49.6674 9.27657C51.4361 10.195 52.8303 11.5147 53.8499 13.2364C54.8693 14.958 55.3791 16.9327 55.3791 19.1608V33.5414H56.8375V19.1606C56.8374 16.6764 56.2633 14.4616 55.1157 12.5171ZM58.5185 12.7602C57.6948 10.8024 56.5671 9.15187 55.1359 7.80801C53.7046 6.46454 52.0032 5.41473 50.0319 4.65851C48.0601 3.90228 45.9537 3.52417 43.7124 3.52417C41.5114 3.52417 39.4353 3.93279 37.4842 4.74955C35.5328 5.56669 33.8719 6.66708 32.5017 8.0511C31.1309 9.43531 30.0508 11.0759 29.2609 12.9729C28.4709 14.8701 28.0759 16.8653 28.0759 18.9581C28.0759 20.781 28.3596 22.5096 28.9266 24.1432C29.4937 25.7772 30.2766 27.2052 31.2761 28.4272C32.2752 29.6493 33.4332 30.7093 34.7498 31.607C36.0663 32.5054 37.4975 33.1837 39.0438 33.6427C40.5898 34.1016 42.1798 34.3313 43.8137 34.3313C45.3936 34.3313 46.9329 34.0681 48.4318 33.5414V32.0426C47.0003 32.6502 45.4879 32.9539 43.8947 32.9539C42.4497 32.9539 41.0287 32.7448 39.6311 32.326C38.2336 31.9078 36.9303 31.2931 35.722 30.483C34.5134 29.6729 33.4466 28.7107 32.5219 27.5966C31.5968 26.4826 30.8675 25.1797 30.3344 23.6875C29.8009 22.1955 29.5343 20.6191 29.5343 18.9581C29.5343 16.4333 30.1553 14.1005 31.3977 11.9603C32.6399 9.82002 34.3479 8.12186 36.5221 6.86608C38.6959 5.61029 41.0927 4.9825 43.7124 4.9825C46.4398 4.9825 48.9109 5.57338 51.1256 6.75477C53.34 7.93644 55.0885 9.6106 56.3715 11.7778C57.6541 13.9451 58.2957 16.4059 58.2957 19.1606V33.5414H59.754V19.1606C59.754 16.8516 59.3418 14.7183 58.5185 12.7602Z" fill="#183651"/>
<path d="M73.1414 0H71.6829V18.6951C71.6829 20.8419 72.3549 22.5262 73.6984 23.7486C75.0422 24.9704 76.8006 25.5815 78.9747 25.5815C80.9463 25.5815 82.587 24.9334 83.8966 23.6371C85.2064 22.3408 85.8613 20.7611 85.8613 18.8976C85.8613 17.6956 85.6557 16.6323 85.2434 15.7076C84.8318 14.7825 84.2748 14.0534 83.5723 13.5201C82.8706 12.9866 82.0907 12.5884 81.233 12.325C80.3757 12.0618 79.4609 11.9301 78.4886 11.9301C76.9765 11.9301 75.5652 12.2745 74.2553 12.9631V14.4214C75.5246 13.665 76.9288 13.2871 78.4682 13.2871C79.1033 13.2871 79.7006 13.3479 80.2608 13.4695C80.8211 13.591 81.3582 13.7902 81.871 14.067C82.3844 14.3437 82.8265 14.6949 83.1977 15.1203C83.5692 15.5456 83.863 16.0788 84.0789 16.7202C84.295 17.3614 84.403 18.0874 84.403 18.8977C84.403 20.3289 83.8697 21.5576 82.8029 22.5841C81.7363 23.61 80.4603 24.1235 78.9747 24.1235C77.2195 24.1235 75.8084 23.6507 74.7415 22.7057C73.6748 21.7603 73.1414 20.4234 73.1414 18.6953V0ZM70.1032 23.8801C70.9943 25.379 72.2096 26.5233 73.7491 27.3133C75.2885 28.1032 77.0302 28.4982 78.9747 28.4982C81.743 28.4982 84.0686 27.5628 85.9524 25.6929C87.836 23.8225 88.7779 21.5574 88.7779 18.8974C88.7779 17.3308 88.5013 15.9164 87.9475 14.654C87.3939 13.3914 86.6446 12.3653 85.6993 11.5754C84.754 10.7856 83.6807 10.1846 82.4785 9.77269C81.277 9.36073 80.0077 9.15494 78.6707 9.15494C77.1855 9.15494 75.7135 9.45884 74.2552 10.0664V11.6058C75.6461 10.89 77.1111 10.5323 78.6506 10.5323C79.7846 10.5323 80.8616 10.7045 81.8811 11.0487C82.9008 11.3931 83.8226 11.8959 84.6459 12.5577C85.4697 13.219 86.1214 14.0971 86.6004 15.1907C87.0799 16.2845 87.3193 17.5199 87.3193 18.8973C87.3193 21.1659 86.5229 23.0901 84.9294 24.6698C83.3364 26.2497 81.3513 27.0396 78.9746 27.0396C76.4091 27.0396 74.3094 26.2867 72.6753 24.7812C71.0418 23.2754 70.2247 21.2467 70.2247 18.6949V0H68.7664V18.6951C68.7665 20.6528 69.2122 22.3812 70.1032 23.8801ZM67.5715 25.3384C68.7192 27.2828 70.289 28.7816 72.2806 29.8349C74.2725 30.8883 76.5035 31.4148 78.9747 31.4148C80.7439 31.4148 82.4179 31.0837 83.9979 30.4223C85.5778 29.7606 86.9282 28.8694 88.0486 27.7487C89.1698 26.6277 90.0575 25.298 90.7122 23.7584C91.3675 22.219 91.6946 20.5987 91.6946 18.8974C91.6946 16.5074 91.1071 14.3467 89.9324 12.416C88.7576 10.4848 87.1915 8.99304 85.2333 7.93979C83.2755 6.88655 81.1286 6.35992 78.7924 6.35992C77.307 6.35992 75.7946 6.65016 74.2553 7.2309V8.70941C75.7273 8.07453 77.2261 7.75743 78.7518 7.75743C80.2507 7.75743 81.6855 8.01056 83.0559 8.51691C84.4266 9.02326 85.6484 9.7353 86.722 10.6539C87.7955 11.5719 88.6495 12.7433 89.2842 14.1679C89.9191 15.5924 90.2362 17.1688 90.2362 18.8974C90.2362 20.9091 89.7468 22.7591 88.7678 24.447C87.7888 26.1348 86.4351 27.4752 84.7066 28.4676C82.9784 29.4602 81.0678 29.9564 78.9746 29.9564C76.7739 29.9564 74.7889 29.4972 73.0198 28.579C71.2511 27.6606 69.857 26.3411 68.8372 24.6193C67.8178 22.8976 67.3081 20.923 67.3081 18.695V0H65.8496V18.6951C65.8496 21.1792 66.424 23.394 67.5715 25.3384ZM64.1687 25.0953C64.9924 27.0531 66.1201 28.7039 67.5512 30.0476C68.9827 31.3911 70.684 32.4408 72.6554 33.1972C74.6271 33.9533 76.7334 34.3314 78.9748 34.3314C81.1758 34.3314 83.252 33.9229 85.203 33.106C87.1544 32.289 88.8153 31.1885 90.1857 29.8046C91.5564 28.4203 92.6365 26.7797 93.4264 24.8828C94.2163 22.9855 94.6113 20.9904 94.6113 18.8975C94.6113 17.0746 94.3276 15.346 93.7606 13.7124C93.1936 12.0784 92.4107 10.6505 91.4112 9.42853C90.412 8.20621 89.2542 7.14637 87.9375 6.24861C86.621 5.35038 85.1899 4.67181 83.6436 4.21298C82.0977 3.75416 80.5077 3.52427 78.8736 3.52427C77.2938 3.52427 75.7545 3.78753 74.2556 4.31416V5.81303C75.6871 5.2055 77.1995 4.9016 78.7927 4.9016C80.2377 4.9016 81.6587 5.11083 83.0561 5.52949C84.4537 5.94786 85.7571 6.56247 86.9653 7.37272C88.174 8.18278 89.2408 9.14499 90.1655 10.259C91.0906 11.373 91.82 12.6759 92.353 14.168C92.8864 15.66 93.1529 17.2366 93.1529 18.8975C93.1529 21.4223 92.5321 23.7552 91.2897 25.8955C90.0475 28.0355 88.3394 29.7338 86.1652 30.9896C83.9916 32.2453 81.5947 32.8732 78.9749 32.8732C76.2475 32.8732 73.7765 32.2824 71.5618 31.101C69.3474 29.9193 67.5988 28.245 66.3159 26.0778C65.0332 23.9106 64.3917 21.4498 64.3917 18.6952V0H62.9333V18.6951C62.9332 21.004 63.3452 23.1373 64.1687 25.0953Z" fill="#183651"/>
<path d="M116.085 4.375H97.7908V33.5415H99.2491V5.83342H116.085V4.375ZM116.085 7.29165H100.707V33.5415H102.166V8.75007H116.085V7.29165ZM116.085 10.2083H103.624V33.5415H105.082V11.6666H116.085V10.2083ZM116.085 13.125H106.541V33.5415H107.999V14.5834H116.085V13.125Z" fill="#183651"/>
<path d="M154.267 23.6687L153.218 22.6202C152.671 23.2906 152.011 23.8199 151.236 24.2042C150.446 24.5959 149.598 24.7915 148.694 24.7915C147.087 24.7915 145.713 24.2212 144.572 23.0801C143.431 21.9389 142.86 20.5653 142.86 18.9583C142.86 17.3514 143.431 15.9776 144.572 14.8364C145.713 13.6955 147.087 13.1248 148.694 13.1248C150.537 13.1248 152.044 13.8496 153.217 15.2974L154.259 14.2559C153.609 13.4862 152.825 12.8652 151.894 12.4059C150.895 11.913 149.828 11.6666 148.694 11.6666C146.682 11.6666 144.963 12.379 143.539 13.8035C142.114 15.2281 141.402 16.9463 141.402 18.9583C141.402 20.9702 142.114 22.6885 143.539 24.113C144.963 25.5377 146.682 26.2499 148.694 26.2499C149.814 26.2499 150.874 26.0103 151.874 25.5306C152.818 25.0779 153.612 24.4532 154.267 23.6687ZM156.316 25.718L155.289 24.6905C154.523 25.5784 153.606 26.2969 152.522 26.8273C151.32 27.4147 150.044 27.7082 148.694 27.7082C146.276 27.7082 144.214 26.851 142.506 25.136C140.798 23.4212 139.944 21.362 139.944 18.9584C139.944 16.555 140.798 14.4958 142.506 12.7807C144.214 11.066 146.276 10.2083 148.694 10.2083C150.044 10.2083 151.317 10.4988 152.512 11.0794C153.599 11.6076 154.519 12.3303 155.287 13.2273L156.319 12.1957C155.438 11.19 154.392 10.3743 153.16 9.77288C151.762 9.09115 150.273 8.75005 148.694 8.75005C146.844 8.75005 145.136 9.20591 143.569 10.1171C142.003 11.0287 140.764 12.2677 139.853 13.834C138.941 15.4005 138.485 17.1085 138.485 18.9584C138.485 20.8085 138.941 22.5164 139.853 24.0826C140.764 25.6493 142.003 26.888 143.569 27.7993C145.136 28.7107 146.844 29.1665 148.694 29.1665C150.273 29.1665 151.759 28.8258 153.15 28.1439C154.384 27.5387 155.433 26.7221 156.316 25.718ZM158.394 27.7957L157.356 26.7577C156.352 27.8674 155.174 28.7739 153.798 29.45C152.204 30.2333 150.503 30.6247 148.694 30.6247C147.114 30.6247 145.605 30.3178 144.167 29.7033C142.729 29.0889 141.486 28.2584 140.44 27.2119C139.393 26.1656 138.563 24.923 137.949 23.485C137.334 22.0468 137.027 20.5381 137.027 18.9582C137.027 17.3784 137.334 15.8694 137.949 14.4311C138.563 12.9932 139.393 11.7509 140.44 10.7043C141.486 9.65803 142.729 8.8276 144.167 8.213C145.605 7.59878 147.114 7.29144 148.694 7.29144C150.503 7.29144 152.204 7.68322 153.798 8.46623C155.174 9.14279 156.352 10.0492 157.356 11.1588L158.398 10.1168C157.28 8.88842 155.961 7.89791 154.436 7.14962C152.646 6.27214 150.732 5.83311 148.694 5.83311C146.911 5.83311 145.21 6.18101 143.589 6.87632C141.969 7.57191 140.575 8.50371 139.407 9.67142C138.239 10.8395 137.307 12.2336 136.612 13.8539C135.916 15.4742 135.569 17.1756 135.569 18.9581C135.569 20.7404 135.916 22.4419 136.612 24.0622C137.307 25.6824 138.239 27.0768 139.407 28.2447C140.575 29.4127 141.969 30.3444 143.589 31.0399C145.21 31.7353 146.911 32.0829 148.694 32.0829C150.719 32.0829 152.623 31.6474 154.405 30.7764C155.941 30.0265 157.269 29.0321 158.394 27.7957ZM160.456 8.05866C159.11 6.60301 157.528 5.42287 155.702 4.52693C153.514 3.45351 151.178 2.91675 148.694 2.91675C146.52 2.91675 144.443 3.342 142.465 4.19271C140.487 5.04342 138.782 6.18464 137.351 7.61581C135.92 9.04716 134.779 10.752 133.928 12.73C133.077 14.7083 132.652 16.7844 132.652 18.9584C132.652 21.1324 133.077 23.2085 133.928 25.1867C134.779 27.165 135.92 28.8699 137.351 30.3008C138.782 31.7323 140.487 32.8731 142.465 33.7239C144.443 34.5745 146.519 34.9999 148.694 34.9999C151.178 34.9999 153.511 34.4631 155.692 33.3896C157.519 32.49 159.104 31.309 160.453 29.8545L159.422 28.8237C158.184 30.1683 156.726 31.2564 155.044 32.0833C153.065 33.0555 150.949 33.5414 148.694 33.5414C146.722 33.5414 144.835 33.1569 143.033 32.3872C141.23 31.6173 139.677 30.5813 138.374 29.2779C137.071 27.975 136.035 26.4222 135.265 24.6193C134.495 22.8167 134.11 20.93 134.11 18.9584C134.11 16.9871 134.495 15.0997 135.265 13.2972C136.035 11.4945 137.071 9.94186 138.374 8.63864C139.677 7.33571 141.23 6.2992 143.033 5.52959C144.835 4.75988 146.722 4.37507 148.694 4.37507C150.949 4.37507 153.065 4.86115 155.044 5.8333C156.726 6.66029 158.184 7.74863 159.422 9.09278L160.456 8.05866Z" fill="#183651"/>
<path d="M7.29158 0H5.83325V33.5416H7.29158V0Z" fill="#183651"/>
<path d="M8.74976 0V33.5416H10.2082L10.2087 0H8.74976Z" fill="#183651"/>
<path d="M1.45842 0H0V33.5416H1.45842V0Z" fill="#183651"/>
<path d="M4.37493 0H2.9165V33.5416H4.37493V0Z" fill="#183651"/>
<path d="M24.204 20.4165H11.3286V21.8748H24.204V20.4165Z" fill="#183651"/>
<path d="M24.8927 2.91675H11.3286V4.37507H24.8927V2.91675Z" fill="#183651"/>
<path d="M24.8928 0H11.3286V1.45833H24.8928V0Z" fill="#183651"/>
<path d="M24.8927 5.83325H11.3286V7.29167H24.8927V5.83325Z" fill="#183651"/>
<path d="M24.204 14.5833H11.3286V16.0416H24.204V14.5833Z" fill="#183651"/>
<path d="M24.204 17.5H11.3286V18.9582H24.204V17.5Z" fill="#183651"/>
</g>
<defs>
<clipPath id="clip0">
<rect width="160.456" height="35" fill="white"/>
</clipPath>
</defs>
</svg>
