<svg id="Group_669" data-name="Group 669" xmlns="http://www.w3.org/2000/svg" xmlns:xlink="http://www.w3.org/1999/xlink" width="161.953" height="45.587" viewBox="0 0 161.953 45.587">
  <defs>
    <clipPath id="clip-path">
      <rect id="Rectangle_423" data-name="Rectangle 423" width="161.953" height="45.587" fill="none"/>
    </clipPath>
  </defs>
  <g id="Group_668" data-name="Group 668" clip-path="url(#clip-path)">
    <path id="Path_315" data-name="Path 315" d="M38.493,13.678h0a.728.728,0,0,1-.165-.381h0A70.5,70.5,0,0,0,37.25,5.554a1.262,1.262,0,0,0-1.092-.988l-3.717-.449a.772.772,0,0,0-.1-.006.785.785,0,0,0-.785.785V6.187a.047.047,0,0,1-.078.035h0A52.41,52.41,0,0,0,23.97.557,3.287,3.287,0,0,0,22.13,0h0a3.287,3.287,0,0,0-1.84.557C7.457,8.479.394,21.358.121,22.065A1.273,1.273,0,0,0,.959,23.84l3.7.711a1.265,1.265,0,0,1,.924,1.079c.03.653.729,15.229,1.606,19.01a1.273,1.273,0,0,0,1.23.946h.028c2.156-.054,4.132-.09,6.265-.119h.014l.164,0a.415.415,0,0,0,.413-.415s0-.007,0-.01h0c-.086-1.273-.273-4.183-.424-7.247,0-.077-.01-.173-.014-.251h0a.784.784,0,0,0-.376-.629,3.992,3.992,0,0,1-1.94-3.219c-.194-5.112-.292-11.019-.012-15.642a.744.744,0,0,1,1.486.031c0,.019,0,.039,0,.058-.182,3.081-.2,6.724-.132,10.319a.88.88,0,1,0,1.76-.031c-.067-3.619-.049-7.285.138-10.377a.744.744,0,0,1,1.486.031c0,.019,0,.039,0,.058-.181,3.065-.2,6.686-.133,10.262v0a.879.879,0,0,0,1.758-.027c-.065-3.6-.047-7.249.139-10.326a.744.744,0,0,1,1.486.031c0,.019,0,.039,0,.058-.266,4.494-.179,10.182,0,15.172,0,0,0,.044,0,.047,0,.025,0,.051,0,.076h0c0,.016,0,.033,0,.049a3.988,3.988,0,0,1-1.729,3.29.762.762,0,0,0-.329.578,30.731,30.731,0,0,0,.247,4.479c.158,1.621.278,2.744.334,3.252a.386.386,0,0,0,.384.342h.345c.712,0,1.447,0,2.21,0h.285c.965,0,1.884,0,2.769.007l2.1.019h0a.4.4,0,0,0,.392-.346c.486-4.45.6-6.949.6-6.949a.441.441,0,0,0-.4-.428l-2.547-.352a.867.867,0,0,1-.728-.624,1.212,1.212,0,0,1-.032-.393c1.033-14.831,5.923-19.83,5.923-19.83a1.484,1.484,0,0,1,.237-.2.783.783,0,0,1,1.189.349,1.475,1.475,0,0,1,.063.356,172.582,172.582,0,0,1-.045,18.785c-.222,5.253-.49,9.376-.49,9.376v.008a.306.306,0,0,0,.306.306c1.388.023,2.755.051,4.2.088h.028a1.274,1.274,0,0,0,1.231-.946c.878-3.781,1.576-18.357,1.606-19.01a1.265,1.265,0,0,1,.924-1.079l3.7-.711a1.273,1.273,0,0,0,.838-1.775,51.037,51.037,0,0,0-5.644-8.387" fill="#ff8000"/>
    <path id="Path_316" data-name="Path 316" d="M261.992,195.674l0,0-.012-.012Z" transform="translate(-210.606 -157.293)" fill="#ff8000"/>
    <path id="Path_317" data-name="Path 317" d="M346.2,101.126h0l.014-.014a6.312,6.312,0,0,0,1.086-.958l-.014.029a7.189,7.189,0,0,0,1.743-4.944V95.2a7.048,7.048,0,0,0-1.815-4.844l.072.085a6.491,6.491,0,0,0-4.672-2.186h-6.5a.384.384,0,0,0-.386.383v21.822a.384.384,0,0,0,.386.386h3.872a.385.385,0,0,0,.386-.383v-8.076H341.8l2.443,8.231a.385.385,0,0,0,.371.271h4.116a.4.4,0,0,0,.315-.157.364.364,0,0,0,0-.343Zm-2.4-4.016h.015a1.988,1.988,0,0,1-1.543.628h-1.9V92.866h1.886a1.987,1.987,0,0,1,1.543.629v-.014a2.544,2.544,0,0,1,.586,1.729v.029a2.67,2.67,0,0,1-.586,1.872" transform="translate(-269.891 -70.946)" fill="#ff8000"/>
    <path id="Path_318" data-name="Path 318" d="M475.79,195.587l-.012.012,0,0Z" transform="translate(-382.481 -157.234)" fill="#ff8000"/>
    <path id="Path_319" data-name="Path 319" d="M264.915,88.4a6.568,6.568,0,0,0-4.859-1.916h-.028A6.512,6.512,0,0,0,255.17,88.4l.043-.057a7.237,7.237,0,0,0-1.758,5.13v9.288a7.227,7.227,0,0,0,1.67,5.141,6.513,6.513,0,0,0,4.846,1.9h.072a6.513,6.513,0,0,0,4.858-1.915,7.225,7.225,0,0,0,1.672-5.144V97.673a.406.406,0,0,0-.4-.386h-5.716a.419.419,0,0,0-.414.386v3.8a.412.412,0,0,0,.414.4h1.572v.872a2.879,2.879,0,0,1-.543,1.829l.014-.015a1.655,1.655,0,0,1-1.415.629h-.029a1.633,1.633,0,0,1-1.415-.6,2.754,2.754,0,0,1-.572-1.814V93.544a2.817,2.817,0,0,1,.6-1.857,1.655,1.655,0,0,1,1.415-.629h.029a1.635,1.635,0,0,1,1.415.6l.029.029a2.888,2.888,0,0,1,.471,1.843v.857a.376.376,0,0,0,.385.343h3.873a.377.377,0,0,0,.385-.343v-.872A7.15,7.15,0,0,0,264.9,88.4Z" transform="translate(-203.741 -69.523)" fill="#ff8000"/>
    <path id="Path_320" data-name="Path 320" d="M426.018,195.6l0,0-.012-.012Z" transform="translate(-342.468 -157.234)" fill="#ff8000"/>
    <path id="Path_321" data-name="Path 321" d="M597.552,88.4h-3.89a.385.385,0,0,0-.386.383v8.462h-3.929V88.783a.384.384,0,0,0-.383-.386H585.1a.384.384,0,0,0-.385.383v21.793a.384.384,0,0,0,.385.386h3.873a.384.384,0,0,0,.385-.383v-8.762h3.929v8.759a.384.384,0,0,0,.386.386h3.872a.384.384,0,0,0,.386-.383V88.783a.384.384,0,0,0-.383-.386" transform="translate(-470.06 -71.063)" fill="#ff8000"/>
    <path id="Path_322" data-name="Path 322" d="M430.571,104.281V88.734a.374.374,0,0,0-.372-.343h-3.958a.377.377,0,0,0-.386.343V104.28a2.693,2.693,0,0,1-.543,1.772,1.757,1.757,0,0,1-2.458.115.55.55,0,0,1-.129-.129,2.686,2.686,0,0,1-.514-1.729V88.734a.346.346,0,0,0-.347-.344h-4a.355.355,0,0,0-.386.322v15.567a7.227,7.227,0,0,0,1.67,5.141,6.512,6.512,0,0,0,4.846,1.9h.057a6.513,6.513,0,0,0,4.846-1.9,7.225,7.225,0,0,0,1.67-5.141" transform="translate(-335.604 -71.057)" fill="#ff8000"/>
    <path id="Path_323" data-name="Path 323" d="M767.193,103.748v.029a6.045,6.045,0,0,0-2.258-4.716l.029.014.028-.029a6,6,0,0,0,1.843-4.329V94.8a6.723,6.723,0,0,0-1.657-4.658l.029.043a6.27,6.27,0,0,0-4.772-2.086h-6.2a.384.384,0,0,0-.386.383v21.851a.384.384,0,0,0,.386.386h6.458a6.507,6.507,0,0,0,5.087-2.315l-.014.014a7.121,7.121,0,0,0,1.429-4.672m-8.731-11h1.943a1.65,1.65,0,0,1,1.3.5l.029.029a2.369,2.369,0,0,1,.458,1.584,2.565,2.565,0,0,1-.486,1.7v-.014a1.573,1.573,0,0,1-1.286.543h-1.958Zm4.187,11.031v.014a2.782,2.782,0,0,1-.572,1.786l.014.029.014-.014a1.7,1.7,0,0,1-1.443.6h-2.2v-4.715h2.215a1.7,1.7,0,0,1,1.443.6l-.014-.014a2.566,2.566,0,0,1,.543,1.715" transform="translate(-606.024 -70.825)" fill="#ff8000"/>
    <path id="Path_324" data-name="Path 324" d="M682.5,104.281V88.734a.371.371,0,0,0-.357-.343h-3.987a.355.355,0,0,0-.385.323v15.567a2.7,2.7,0,0,1-.514,1.743,1.757,1.757,0,0,1-2.472.129.55.55,0,0,1-.129-.129,2.686,2.686,0,0,1-.514-1.729V88.734a.377.377,0,0,0-.386-.343H669.78a.377.377,0,0,0-.385.343v15.589a7.184,7.184,0,0,0,1.672,5.1l.042.043a7.245,7.245,0,0,0,9.774-.085l-.057.042a7.224,7.224,0,0,0,1.672-5.144" transform="translate(-538.119 -71.057)" fill="#ff8000"/>
    <path id="Path_325" data-name="Path 325" d="M796.4,122.528c0-.005,0-.011,0-.016s0-.008,0-.013Z" transform="translate(-640.235 -98.478)" fill="#ff8000"/>
    <path id="Path_326" data-name="Path 326" d="M515.164,103.983v.057a6.072,6.072,0,0,0-2.258-4.73h0l.029-.029a6,6,0,0,0,1.843-4.319,6.735,6.735,0,0,0-1.657-4.5v.014a6.27,6.27,0,0,0-4.772-2.086h-6.174a.384.384,0,0,0-.386.383V110.57a.384.384,0,0,0,.386.386h6.488a6.506,6.506,0,0,0,5.087-2.315l-.014.014a7.121,7.121,0,0,0,1.429-4.672m-8.76-11h1.943a1.65,1.65,0,0,1,1.3.5l.028.029a2.371,2.371,0,0,1,.458,1.584,2.567,2.567,0,0,1-.486,1.7v-.014a1.573,1.573,0,0,1-1.286.543H506.4Zm4.187,11.031v.014a2.781,2.781,0,0,1-.572,1.786l.014.029.014-.014a1.7,1.7,0,0,1-1.443.6h-2.2v-4.715h2.215a1.7,1.7,0,0,1,1.443.6l-.014-.014a2.567,2.567,0,0,1,.543,1.715" transform="translate(-403.392 -71.06)" fill="#ff8000"/>
    <path id="Path_327" data-name="Path 327" d="M568.028,121.845v.011c0,.016,0,.031,0,.047Z" transform="translate(-456.643 -97.952)" fill="#ff8000"/>
    <path id="Path_328" data-name="Path 328" d="M544.348,122.528c0-.005,0-.011,0-.016s0-.008,0-.013Z" transform="translate(-437.606 -98.478)" fill="#ff8000"/>
    <path id="Path_329" data-name="Path 329" d="M817.734,87.49a.91.91,0,1,1-.884.909.9.9,0,0,1,.884-.909m0,1.65a.741.741,0,1,0-.7-.74.715.715,0,0,0,.7.74m-.3-1.213h.361a.275.275,0,0,1,.3.286.248.248,0,0,1-.172.249v.005a.266.266,0,0,1,.033.052l.179.346h-.194l-.174-.364h-.152v.364h-.177Zm.326.446a.145.145,0,0,0,.152-.159.14.14,0,0,0-.152-.152h-.149v.311Z" transform="translate(-656.673 -70.334)" fill="#ff8000"/>
  </g>
</svg>
