<svg id="Layer_1" data-name="Layer 1" xmlns="http://www.w3.org/2000/svg" viewBox="0 0 260 60"><defs><style>.cls-1{fill:#0068b5;}.cls-2{fill:#00c7fd;}</style></defs><path class="cls-1" d="M88.36,17.24a7.14,7.14,0,0,1,5.92-3,7.05,7.05,0,0,1,6.44,3.49,8,8,0,0,1,6.9-3.49c5.15,0,7.92,3.83,7.92,8.43V35.34h-3.49V22.9c0-3.28-1.67-5.54-4.94-5.54S102,19.88,102,23.11V35.34H98.5V22.9c0-3.28-1.66-5.54-4.94-5.54s-5.15,2.52-5.15,5.75V35.34H85V14.77h3.4Z"/><path class="cls-1" d="M119.06,25.12a10.66,10.66,0,0,1,10.78-10.91,10.54,10.54,0,0,1,10.64,10.86A10.66,10.66,0,0,1,129.71,36,10.55,10.55,0,0,1,119.06,25.12ZM137,25.07c0-4.34-3.11-7.83-7.2-7.83s-7.15,3.4-7.15,7.88S125.7,33,129.79,33,137,29.55,137,25.07Z"/><path class="cls-1" d="M144.23,5.52h3.45V18a9.59,9.59,0,0,1,7.54-3.66c5.49,0,10.18,4.13,10.18,10.69s-4.9,10.82-10.35,10.82a9.52,9.52,0,0,1-7.41-3.54v3.07h-3.41Zm10.52,27.26c4.05,0,7.11-2.89,7.11-7.71s-3-7.71-7-7.71a7.47,7.47,0,0,0-7.33,7.8A7.29,7.29,0,0,0,154.75,32.78Z"/><path class="cls-1" d="M172.92,11.66h-3.83V7.87h3.83Zm-.17,3.11V35.34h-3.49V14.77Z"/><path class="cls-1" d="M181.32,35.34h-3.49V5.52h3.49Z"/><path class="cls-2" d="M203.05,29.5l2.09,1.92A11.19,11.19,0,0,1,195.81,36c-6.14,0-10.56-4.48-10.56-10.86,0-6.22,4.59-10.86,10.47-10.86s10.14,4.17,10.14,10.6a9.78,9.78,0,0,1-.13,1.45H188.82A7.22,7.22,0,0,0,196.11,33,8.64,8.64,0,0,0,203.05,29.5Zm-14.23-5.88h13.55c-.51-4-3.11-6.43-6.6-6.43S189.42,19.54,188.82,23.62Z"/><path class="cls-2" d="M210.41,14.77l6.64,16.35,6.65-16.35h3.62L215.35,43h-3.58l3.54-7.83-8.69-20.4Z"/><path class="cls-2" d="M245.82,29.5l2.09,1.92A11.19,11.19,0,0,1,238.58,36C232.45,36,228,31.5,228,25.12A10.48,10.48,0,0,1,238.5,14.26c5.87,0,10.13,4.17,10.13,10.6a10.09,10.09,0,0,1-.12,1.45H231.6A7.21,7.21,0,0,0,238.88,33,8.62,8.62,0,0,0,245.82,29.5ZM231.6,23.62h13.54c-.51-4-3.11-6.43-6.6-6.43S232.19,19.54,231.6,23.62Z"/><path class="cls-2" d="M252,14.26a2.26,2.26,0,0,1,2.38,2.26A2.29,2.29,0,0,1,252,18.79a2.27,2.27,0,1,1,0-4.53Zm2,2.27a1.9,1.9,0,0,0-2-1.89,1.88,1.88,0,0,0-2,1.88,2,2,0,0,0,3.94,0Zm-2.82,1.1V15.42h1.07c.51,0,.8.26.8.68a.65.65,0,0,1-.54.63l.54.9h-.54l-.49-.84h-.37v.84Zm.47-1.77v.5h.58c.23,0,.35-.11.35-.26s-.11-.24-.33-.24Z"/><path class="cls-1" d="M84.55,52l4.27-9.61H90L94.23,52H93l-1.27-2.89H87.05L85.79,52Zm6.7-3.94-1.88-4.25-1.85,4.25Z"/><path class="cls-1" d="M96.52,46.4a2.76,2.76,0,0,1,2.38-1.19c1.82,0,2.8,1.3,2.8,3.18V52h-1.11V48.46c0-1.33-.68-2.25-2-2.25a2.1,2.1,0,0,0-2.1,2.32V52H95.42V45.37h1.1Z"/><path class="cls-1" d="M107.74,42.39V52h-1.18V42.39Z"/><path class="cls-1" d="M110.85,46.4a2.73,2.73,0,0,1,2.37-1.19c1.83,0,2.81,1.3,2.81,3.18V52h-1.12V48.46c0-1.33-.67-2.25-2-2.25a2.11,2.11,0,0,0-2.1,2.32V52h-1.11V45.37h1.1Z"/><path class="cls-1" d="M117.93,46.36H117v-1h.91v-2H119v2h1.54v1H119v3.78c0,.63.3.86.81.86h.73v1h-.89c-1.24,0-1.76-.54-1.76-1.77Z"/><path class="cls-1" d="M127.09,50.12l.68.62a3.61,3.61,0,0,1-3,1.47,3.32,3.32,0,0,1-3.41-3.5,3.38,3.38,0,0,1,3.38-3.5A3.18,3.18,0,0,1,128,48.63a3.37,3.37,0,0,1,0,.46h-5.45a2.32,2.32,0,0,0,2.35,2.17A2.76,2.76,0,0,0,127.09,50.12Zm-4.58-1.89h4.36a2.13,2.13,0,0,0-2.12-2.07A2.25,2.25,0,0,0,122.51,48.23Z"/><path class="cls-1" d="M130.64,52h-1.13V42.39h1.13Z"/><path class="cls-1" d="M143.23,49.25l.9.52A4.44,4.44,0,0,1,140,52.22a4.74,4.74,0,0,1-4.79-5,4.89,4.89,0,0,1,4.92-5,4.21,4.21,0,0,1,4,2.41l-1,.56a3.23,3.23,0,0,0-3-1.91,3.72,3.72,0,0,0-3.68,4,3.72,3.72,0,0,0,3.61,4A3.5,3.5,0,0,0,143.23,49.25Z"/><path class="cls-1" d="M145.27,48.71a3.45,3.45,0,1,1,3.43,3.5A3.39,3.39,0,0,1,145.27,48.71Zm5.76,0a2.32,2.32,0,1,0-2.3,2.54A2.41,2.41,0,0,0,151,48.7Z"/><path class="cls-1" d="M154.72,46.17a2.43,2.43,0,0,1,4,.16,2.6,2.6,0,0,1,2.23-1.12,2.5,2.5,0,0,1,2.55,2.72V52h-1.13V48c0-1.06-.53-1.79-1.59-1.79a1.68,1.68,0,0,0-1.66,1.85V52H158V48c0-1.06-.54-1.79-1.59-1.79a1.69,1.69,0,0,0-1.67,1.85V52h-1.11V45.37h1.1Z"/><path class="cls-1" d="M165.22,45.37h1.1v1.07a3.06,3.06,0,0,1,2.46-1.22A3.26,3.26,0,0,1,172,48.67a3.34,3.34,0,0,1-3.35,3.49,3.12,3.12,0,0,1-2.36-1.09v3.41h-1.11Zm3.39,5.81a2.5,2.5,0,0,0,0-5,2.4,2.4,0,0,0-2.36,2.51A2.34,2.34,0,0,0,168.61,51.18Z"/><path class="cls-1" d="M178.06,50.92a3.07,3.07,0,0,1-2.54,1.22c-1.45,0-2.47-.79-2.47-2s.89-2,3-2h2a1.74,1.74,0,0,0-1.84-2,3,3,0,0,0-2,.89l-.59-.74a3.87,3.87,0,0,1,2.74-1.11,2.68,2.68,0,0,1,2.83,3V52h-1.09Zm-3.91-.82c0,.6.55,1.15,1.49,1.15A2.34,2.34,0,0,0,178.05,49h-1.94C174.67,49,174.15,49.37,174.15,50.1Z"/><path class="cls-1" d="M182,46.4a2.76,2.76,0,0,1,2.38-1.19c1.82,0,2.8,1.3,2.8,3.18V52H186V48.46c0-1.33-.68-2.25-1.95-2.25a2.1,2.1,0,0,0-2.1,2.32V52h-1.12V45.37H182Z"/><path class="cls-1" d="M189.06,45.37l2.14,5.28,2.14-5.28h1.17l-3.86,9.11H189.5L190.64,52l-2.8-6.58Z"/><path class="cls-1" d="M69.37,9.85h2.57v.47h-1V12.7h-.49V10.32h-1Zm6,2.85h-.49V10.35l-.84,1.57h-.43l-.85-1.6V12.7H72.3V9.85h.76l.8,1.51.79-1.51h.75Z"/><polygon class="cls-1" points="5.62 38.13 5.62 52.01 19.79 52.01 19.79 23.96 5.62 38.13"/><path class="cls-1" d="M54,9.85H33.9L19.79,24h5.95c3.53,0,5.38,2.44,5.38,6.23V52H45.29V24h6c3.53,0,5.38,2.44,5.38,6.23V52H70.79V26.53C70.79,16.33,65.2,9.85,54,9.85Z"/><rect class="cls-2" x="5.62" y="9.85" width="14.17" height="14.11"/></svg>