<svg width="100" height="24" viewBox="0 0 100 24" fill="none" xmlns="http://www.w3.org/2000/svg">
<path d="M0.877023 17.7874C0.773908 17.6843 0.645015 17.6585 0.567679 17.6585C0.361449 17.6585 0.12944 17.8132 0.12944 18.0968V18.1226C0.12944 18.2257 0.180998 18.3546 0.258334 18.4319L3.71268 21.8863C3.79002 21.9636 3.91891 22.0151 4.02203 22.0151C4.09936 22.0151 4.1767 21.9894 4.25403 21.9378C4.35715 21.8605 4.43449 21.7316 4.46026 21.6027C4.48604 21.4738 4.43449 21.3449 4.33137 21.2418L0.877023 17.7874Z" fill="#312D5E"/>
<path d="M7.24421 14.4875C7.24421 14.2039 7.0122 13.9719 6.72864 13.9719C6.44507 13.9719 6.21306 14.2039 6.21306 14.4875C6.21306 14.7711 6.44507 15.0031 6.72864 15.0031C7.0122 15.0031 7.24421 14.7711 7.24421 14.4875Z" fill="#312D5E"/>
<path d="M20.5197 0C18.5605 0 16.988 1.5725 16.988 3.48013V11.8582L16.7302 11.6004C16.6529 11.5231 8.9193 3.66058 6.26409 1.16004C5.49073 0.438238 4.53692 0.0257787 3.55732 0.0257787C2.78396 0.0257787 2.03638 0.283566 1.41769 0.79914C0.670108 1.41783 0.206091 2.29431 0.154534 3.24812C0.102976 4.25349 0.463878 5.23308 1.1599 5.98066C3.29954 8.19763 6.57343 11.4458 9.77 14.565C12.7861 17.5295 15.8796 20.5714 17.8645 22.6595C18.5605 23.3813 19.5143 23.7938 20.5197 23.7938C21.3446 23.7938 22.1438 23.5102 22.7625 22.9688C23.4585 22.3759 23.8967 21.551 23.9741 20.623C23.9998 20.4941 23.9998 20.3652 23.9998 20.2621V3.50591C24.0256 1.5725 22.4531 0 20.5197 0Z" fill="#312D5E"/>
<path d="M7.06392 17.6585L0.877023 11.4716C0.773908 11.3685 0.670793 11.3427 0.567679 11.3427C0.361449 11.3427 0.12944 11.4973 0.12944 11.7809V11.8067C0.12944 11.9098 0.180998 12.0387 0.258334 12.116L6.44523 18.3029C6.54834 18.406 6.67723 18.4318 6.75457 18.4318C6.88346 18.4318 7.01236 18.3803 7.08969 18.2771C7.14125 18.1998 7.21859 18.0967 7.19281 17.9162C7.19281 17.8131 7.14125 17.7358 7.06392 17.6585Z" fill="#312D5E"/>
<path d="M2.06275 15.9313C1.95963 15.8282 1.83074 15.8025 1.7534 15.8025C1.54717 15.8025 1.31516 15.9571 1.31516 16.2407C1.31516 16.3438 1.36672 16.4727 1.44406 16.55L6.2389 21.3449C6.31623 21.4222 6.44513 21.4738 6.54824 21.4738C6.72869 21.4738 6.90914 21.3707 6.9607 21.1644V21.1386C6.98648 21.0098 6.9607 20.8551 6.83181 20.7262L2.06275 15.9313Z" fill="#312D5E"/>
<path d="M0.824523 21.0354C0.747187 20.9581 0.669851 20.9323 0.566736 20.9323C0.4894 20.9323 0.412063 20.9581 0.360506 21.0354C0.308948 21.087 0.308949 21.1643 0.308949 21.2417C0.566736 22.4791 1.59788 23.5875 2.83526 23.9484C2.86104 23.9484 2.93838 23.9742 3.06727 24C3.09305 24 3.09305 24 3.11883 24C3.22194 24 3.29928 23.9484 3.35084 23.8453C3.37662 23.768 3.37662 23.6133 3.2735 23.4844L0.824523 21.0354Z" fill="#312D5E"/>
<path d="M5.13051 13.4822C5.23363 13.5853 5.36252 13.6111 5.43986 13.6111C5.67187 13.6111 5.87809 13.4565 5.87809 13.1729C5.87809 13.044 5.82654 12.9409 5.7492 12.8635L0.877023 7.99137C0.773908 7.88825 0.645015 7.86247 0.567679 7.86247C0.361449 7.86247 0.12944 8.01715 0.12944 8.30071V8.32649C0.12944 8.42961 0.180998 8.5585 0.258334 8.63584L5.13051 13.4822Z" fill="#312D5E"/>
<path d="M5.28457 22.35C5.001 22.35 4.76899 22.582 4.76899 22.8656C4.76899 23.1492 5.001 23.3812 5.28457 23.3812C5.56813 23.3812 5.80014 23.1492 5.80014 22.8656C5.80014 22.582 5.56813 22.35 5.28457 22.35Z" fill="#312D5E"/>
<path d="M0.515574 15.467C0.79914 15.467 1.03115 15.235 1.03115 14.9515C1.03115 14.6679 0.79914 14.4359 0.515574 14.4359C0.232008 14.4359 0 14.6679 0 14.9515C0 15.235 0.232008 15.467 0.515574 15.467Z" fill="#312D5E"/>
<path d="M37.534 5.6968C35.9099 5.59369 34.389 6.47017 33.6672 7.91377V5.90303H31.9142V17.8901H33.6672V10.7237C33.6672 10.6205 33.6672 10.5174 33.6672 10.4143C33.7703 8.63558 35.2912 7.26931 37.07 7.34664C39.0034 7.34664 40.215 8.6098 40.215 10.5948V17.8644H41.9679V10.2081C41.9679 7.47554 40.2665 5.6968 37.534 5.6968Z" fill="#312D5E"/>
<path d="M54.3418 7.65605C53.6458 6.41867 52.2537 5.51641 50.1141 5.49063C48.49 5.46486 46.9175 6.1351 45.8091 7.32092C44.649 8.53252 44.0045 10.1566 44.0561 11.8322C44.0045 13.5078 44.649 15.1577 45.8091 16.3693C46.9175 17.5551 48.49 18.1995 50.1141 18.1738C52.228 18.1738 53.6458 17.2715 54.3418 16.0599V17.8386H56.0948V5.87731H54.3418V7.65605ZM53.2591 15.2608C52.4342 16.1372 51.2741 16.6528 50.0625 16.627C48.8767 16.6528 47.7682 16.163 46.9691 15.2865C46.1442 14.3585 45.7059 13.1469 45.7575 11.9095C45.7059 10.6722 46.1442 9.48634 46.9691 8.5583C47.7425 7.65605 48.8767 7.14047 50.0625 7.14047C51.2741 7.11469 52.4342 7.63027 53.2591 8.5583C54.1098 9.46056 54.5738 10.6464 54.548 11.8838C54.5996 13.1211 54.1356 14.3585 53.2591 15.2608Z" fill="#312D5E"/>
<path d="M63.6221 15.5185L59.6522 5.903H57.7961L62.7972 17.6839C62.9519 18.019 63.287 18.251 63.6479 18.251C64.0088 18.251 64.3439 18.0448 64.4986 17.6839L69.4997 5.903H67.6178L63.6221 15.5185Z" fill="#312D5E"/>
<path d="M72.98 5.903H71.2013V17.8901H72.98V5.903Z" fill="#312D5E"/>
<path d="M72.8513 1.83019C72.3873 1.39195 71.6655 1.41773 71.2273 1.88174C71.2015 1.90752 71.2015 1.90752 71.1757 1.9333C70.7375 2.39732 70.7632 3.1449 71.2273 3.58314C71.6913 4.04716 72.4389 4.04716 72.9029 3.58314L72.9287 3.55736C73.3927 3.09334 73.3669 2.34576 72.9029 1.88174C72.8771 1.85597 72.8771 1.83019 72.8513 1.83019Z" fill="#312D5E"/>
<path d="M81.3059 5.69719C79.7076 5.61985 78.1867 6.47055 77.4649 7.91416V5.90342H75.7119V17.8905H77.4649V10.724C77.4649 10.6209 77.4649 10.5178 77.4649 10.4405C77.5422 8.66174 79.0632 7.26969 80.8677 7.37281C82.8011 7.37281 84.0127 8.63596 84.0127 10.6209V17.8905H85.7656V10.2085C85.7399 7.47592 84.0385 5.69719 81.3059 5.69719Z" fill="#312D5E"/>
<path d="M98.1401 5.87731V7.65605C97.444 6.41867 96.052 5.51641 93.9124 5.49063C92.2883 5.46486 90.7158 6.1351 89.6073 7.32092C88.4473 8.53252 87.8028 10.1566 87.8544 11.8322C87.8028 13.5078 88.4473 15.1577 89.6073 16.3693C90.7158 17.5551 92.2883 18.2253 93.9124 18.1738C96.0262 18.1738 97.444 17.2715 98.1401 16.0599V17.8386H99.893V5.87731H98.1401ZM97.0574 15.2608C96.2324 16.1372 95.0724 16.6528 93.8608 16.627C92.675 16.6528 91.5665 16.163 90.7674 15.2865C89.9424 14.3585 89.5042 13.1469 89.5558 11.9095C89.5042 10.6722 89.9424 9.48634 90.7674 8.5583C91.5407 7.65605 92.675 7.14047 93.8608 7.14047C95.0724 7.11469 96.2324 7.63027 97.0574 8.5583C97.9081 9.46056 98.3721 10.6464 98.3205 11.8838C98.3721 13.1211 97.9081 14.3327 97.0574 15.2608Z" fill="#312D5E"/>
</svg>
