<svg xmlns="http://www.w3.org/2000/svg" overflow="visible" viewBox="0 0 187.8 36.9">
    <style>
        .st1,.st2,.st4{fill-rule:evenodd;clip-rule:evenodd;fill:#54476e}.st2,.st4{fill:#af6bd6}.st4{fill:#fff}.st5{fill:#ffb03f}.st6{fill:#ed9140}
    </style>
    <path d="M55.2 26.3l-6.7-7.5c4.2-.8 5.6-3.9 5.6-6.9 0-3.8-2.7-7.3-7.9-7.3H35.7v22h4.2v-7.4h4l6.4 7.4h5v-.3zm-9-17.9c2.6 0 3.8 1.8 3.8 3.5 0 1.8-1.1 3.5-3.8 3.5h-6.3v-7h6.3zm21.2-4.3C59.8 4.1 56 10 56 15.8s3.6 11.4 11.3 11.4 11.3-5.7 11.3-11.4C78.7 10 75 4.1 67.4 4.1zm0 3.8c5.2 0 7.3 4.2 7.2 7.9 0 3.6-2 7.5-7.2 7.5s-7.1-3.9-7.2-7.5c-.2-3.7 2-7.9 7.2-7.9zm24.4-3.8c-7.6 0-11.3 5.8-11.3 11.6S84 27.1 91.8 27.1c7.7 0 11.3-5.7 11.3-11.4S99.4 4.1 91.8 4.1zm0 3.8c5.2 0 7.3 4.2 7.2 7.9 0 3.6-2 7.5-7.2 7.5s-7.1-3.9-7.2-7.5c-.2-3.7 1.9-7.9 7.2-7.9zm42.8-3.8c-7.6 0-11.3 5.8-11.3 11.6s3.6 11.4 11.3 11.4c7.8 0 11.3-5.7 11.3-11.4s-3.8-11.6-11.3-11.6zm0 3.8c5.2 0 7.3 4.2 7.2 7.9 0 3.6-2 7.5-7.2 7.5s-7.1-3.9-7.2-7.5c-.2-3.7 2-7.9 7.2-7.9zm28.9-3.3v12.6c0 3.8-2 6.1-5.4 6.1-3.4 0-5.7-2.1-5.7-6.1V4.6h-4.1v12.6c0 6.6 4.5 9.9 9.8 9.9 5.5 0 9.5-3.4 9.5-9.9V4.6h-4.1zm-58.3 22h4.2v-9.8l9.3 9.8h5.1v-.3l-10.6-11.1L123 4.6v-.1h-5.2l-8.4 9.5V4.5h-4.2v22.1zm71.5 0h4.2V8.3h7V4.5h-18.1v3.8h7v18.3z" fill="#54476e"/>
    <path class="st1" d="M20 0c-.3.5-.6 1-1.1 1.3-.9.7-2 .8-3.1.7-3.6 0-6.6 2.9-6.6 6.6v2.9l-.2.1C7.4 13 6.7 15 6.7 17.1c0 2.4.9 4.9 2.2 7H4.8c-1.3 0-2.2-.7-2.5-1.8H0v.3c0 2.8 2.3 4.1 4.7 4.1H10l-1.1 4c-.3 1-.3 2.1.2 3.1.4.7 1 1.3 1.8 1.4.5.1 1.1.1 1.7-.1l.3-.1.2.3c.1.1.2.3.3.4.6.8 1.5 1.2 2.4 1.2s1.8-.5 2.4-1.2c.1-.1.2-.3.3-.4l.2-.3.3.1c.5.2 1.1.3 1.6.1.8-.2 1.4-.7 1.8-1.4.5-1 .5-2.1.2-3.1l-1.1-4h5.3c2.5 0 4.7-1.3 4.7-4.1v-.3h-2.4c-.3 1.1-1.3 1.8-2.5 1.8h-4.1c1.3-2.1 2.2-4.6 2.2-7 0-2.1-.6-4.1-2.3-5.5l3.2-2.1c-.5-1.4-2.7-3.3-3.9-3.9-.2-.4-.4-.7-.6-1l-.2-.2.1-.2c.5-1.2-.3-3-1-4.2"/>
    <path class="st2" d="M20.4 26.8l1.2 4.3c.9 3.4-2.4 4.5-3.6 1.6.2 4.3-4.7 4.3-4.5 0-1.1 2.9-4.5 1.8-3.6-1.7l1.2-4.3h.6c1.4 0 2.5.8 2.8 2.1h2.4c.3-1.4 1.4-2.1 2.8-2.1h.7zm-4.1-21c1.1 0 2 .9 2 2s-.9 2-2 2-2-.9-2-2 .9-2 2-2zm5 6.3c1.5 1.1 2.4 2.7 2.4 5.2 0 1.9-.6 3.9-1.7 5.8-.3-.2-.6-.2-1.1-.3-.3 0-.5-.3-1.1-.3-.5 0-.8.3-1.1.3-.6.1-1 0-1.2.3-.2.2-.3.5-.3.8v1c-.5.1-.9.5-1.2 1.1l-.3.4-.2-.4c-.3-.6-.7-1-1.1-1.3v-.5-.5c0-.3-.1-.6-.3-.8-.3-.3-.6-.2-1.2-.3-.3 0-.5-.3-1.1-.3s-.8.3-1.1.3c-.5.1-.9.1-1.1.3-1-1.8-1.7-3.9-1.7-5.8 0-2.4.9-4.1 2.4-5.2.5-.3.9-.6 1.4-.9.3-.2.4-.5-.2-.4l-1.3.1V8.6c0-3 2.5-5.5 5.5-5.5 0 0 3.4.2 4.1-1.3.6 1.2.3 2.2-.3 2.8.5.2.9.8 1.3 1.4-1.3 1.7-1.3 4.5.5 6.1z"/>
    <path d="M9.5 23c-1-1.8-1.7-3.9-1.7-5.8 0-2.4.9-4.1 2.4-5.2.5-.3.9-.6 1.4-.9.3-.2.4-.5-.2-.4l-1.3.1V8.6c0-1.9 1-3.6 2.5-4.6-2 2.4-.8 6.3 1.2 7.3-4.9 3-3.4 7.3-1.2 11.4-.3 0-.5-.3-1.1-.3-.5 0-.8.3-1.1.3-.3.1-.7.1-.9.3M19.8 1.8c.7 1.2.3 2.2-.3 2.8-.3-.1-.5-.2-.8-.3-.1 0-.1-.1 0-.2.7-.4 1.2-1.1 1.1-2.3zm-3.9 34.1c-1.2.1-2.5-1-2.4-3.2-1.1 2.9-4.5 1.8-3.6-1.7l1.2-4.3h.6c1.4 0 2.5.8 2.8 2.1h2.4c-1.1 2.5-1 4.6-1 7.1z" fill-rule="evenodd" clip-rule="evenodd" fill="#8c55b7"/>
    <path class="st4" d="M15.8 13.7c2.8 0 5 2.1 5 5.7 0 1.1-.3 2.1-.7 3.1h-.3c-.5 0-.8.3-1.1.3-.6.1-1 0-1.2.3-.2.2-.3.5-.3.8v1c-.6.1-.9.5-1.2 1.1l-.3.4-.2-.4c-.3-.6-.7-1-1.1-1.3v-.5-.5c0-.3-.1-.6-.3-.8-.3-.3-.6-.2-1.2-.3-.3 0-.5-.3-1.1-.3h-.3c-.4-1-.7-2.1-.7-3.1-.1-3.4 2.1-5.5 5-5.5"/>
    <path class="st5" d="M23.1 7.7c-.5-.5-1.2-.9-1.8-1.3-.5.9-.7 1.7-.6 2.4 0 .9.3 1.6.7 2.1l3-1.8c-.4-.4-.8-.9-1.3-1.4"/>
    <path class="st6" d="M20.8 9.7c.1.5.4 1 .6 1.3l3-1.8c-1.2.4-2.4.5-3.6.5"/>
    <path d="M23.7 8.8c-.5-.7-1.2-1.2-2.1-1.8-.2.2-.3.5-.3.8.8.3 1.6.6 2.4 1" fill="#ffce92"/>
    <path class="st4" d="M16.9 6.4c.3 0 .6.3.6.6s-.3.6-.6.6-.6-.3-.6-.6.3-.6.6-.6"/>
    <path class="st6" d="M12 23.4c-.1-.1-.2-.1-.3-.1s-.2 0-.3.1-.1.2-.1.3v2c0 .1 0 .2.1.3.1.1.2.1.3.1.1 0 .2 0 .3-.1.1-.1.1-.2.1-.3v-.5-.5-.5-.5c0-.1 0-.3-.1-.3m-1.6 0c-.1 0-.1 0 0 0-.2 0-.3.1-.4.2-.1.1-.2.2-.2.3v1.6c0 .1.1.3.2.3.1.1.2.2.3.2.1 0 .2 0 .3-.1.1-.1.1-.2.1-.3v-.4-.4-.4-.4c0-.1 0-.2-.1-.3-.1-.3-.1-.3-.2-.3zm3 .2c-.1-.1-.2-.2-.3-.2-.1 0-.2 0-.3.1-.1.1-.1.2-.1.3V25.5c0 .1 0 .2.1.3 0 .1.1.1.2.1s.3-.1.3-.2c.1-.1.2-.3.2-.4v-.4-.4-.4-.4l-.1-.1z"/>
    <path class="st5" d="M12.2 24.8c-.1.2-.3.3-.5.3s-.3-.1-.5-.4v-.1-.5-.5c0-.1 0-.2.1-.3s.2-.1.3-.1c.1 0 .3 0 .3.1s.1.2.1.3v1l.2.2zm-1.5-.2c-.1.2-.3.3-.5.3s-.4-.2-.5-.4v-.3-.4c0-.1.1-.3.2-.3.1-.1.2-.2.3-.2.1 0 .2 0 .3.1s.1.2.1.3v.4c.1.3.1.4.1.5zm2.7-1c-.1-.1-.2-.2-.3-.2-.1 0-.2 0-.3.1-.1.1-.1.2-.1.3v.7c.1.2.3.4.5.4s.3-.1.5-.3v-.3-.4l-.3-.3z"/>
    <path class="st6" d="M19.5 23.4c.1-.1.2-.1.3-.1.1 0 .2 0 .3.1s.1.2.1.3v2c0 .1 0 .2-.1.3-.1.1-.2.1-.3.1-.1 0-.2 0-.3-.1-.1 0-.2-.2-.2-.3v-.5-.5-.5-.5c0-.1.1-.3.2-.3m1.6 0c.2 0 .3.1.4.2s.2.2.2.3v1.6c0 .1-.1.3-.2.3-.1.1-.2.2-.3.2-.1 0-.2 0-.3-.1-.1-.1-.1-.2-.1-.3v-.4-.4-.4-.4c0-.1 0-.2.1-.3 0-.3.1-.3.2-.3zm-3 .2c.1-.1.2-.2.3-.2.1 0 .2 0 .3.1.1.1.1.2.1.3V25.5c0 .1 0 .2-.1.3 0 .1-.1.1-.2.1s-.3-.1-.3-.2c-.1-.1-.2-.3-.2-.4v-.4-.4-.4-.4l.1-.1z"/>
    <path class="st5" d="M19.3 24.8c.1.2.3.3.5.3s.3-.1.5-.4v-.1-.5-.5c0-.1 0-.2-.1-.3-.1-.1-.2-.1-.3-.1-.1 0-.3 0-.3.1s-.1.2-.1.3v1l-.2.2zm1.5-.2c.1.2.3.3.5.3s.4-.2.5-.4v-.3-.4c0-.1-.1-.3-.2-.3s-.2-.2-.3-.2c-.1 0-.2 0-.3.1-.1.1-.1.2-.1.3v.4c-.1.3-.1.4-.1.5zm-2.7-1c.1-.1.2-.2.3-.2.1 0 .2 0 .3.1.1.1.1.2.1.3v.7c-.1.2-.3.4-.5.4s-.3-.1-.5-.3v-.3-.4l.3-.3z"/>
    <circle class="st2" cx="16.5" cy="7.6" r="2.3"/>
    <circle class="st1" cx="16.3" cy="7.6" r="1.6"/>
    <circle class="st4" cx="16.9" cy="7" r=".5"/>
</svg>